HIERARCHY
ROOT Hips
{
	OFFSET 0.000000 0.000000 0.000000
	CHANNELS 6 Xposition Yposition Zposition Xrotation Yrotation Zrotation
	JOINT LeftUpLeg_virtual
	{
		OFFSET 0.000000 0.000000 0.000000
		CHANNELS 3 Xrotation Yrotation Zrotation
		JOINT LeftUpLeg
		{
			OFFSET 15.427100 -6.655098 0.678600
			CHANNELS 3 Xrotation Yrotation Zrotation
			JOINT LeftLeg
			{
				OFFSET 4.081073 -39.591068 13.024000
				CHANNELS 3 Xrotation Yrotation Zrotation
				JOINT LeftFoot
				{
					OFFSET -4.081074 -37.707932 -15.979700
					CHANNELS 3 Xrotation Yrotation Zrotation
					JOINT LeftToeBase
					{
						OFFSET 5.346399 -15.068900 20.645000
						CHANNELS 3 Xrotation Yrotation Zrotation
						JOINT LeftToe_End
						{
							OFFSET 2.754700 0.931300 11.300900
							CHANNELS 3 Xrotation Yrotation Zrotation
							End Site
							{
								OFFSET 0 0 0
							}
						}
					}
				}
			}
		}
	}
	JOINT RightUpLeg_virtual
	{
		OFFSET 0.000000 0.000000 0.000000
		CHANNELS 3 Xrotation Yrotation Zrotation
		JOINT RightUpLeg
		{
			OFFSET -15.569500 -6.655098 0.678600
			CHANNELS 3 Xrotation Yrotation Zrotation
			JOINT RightLeg
			{
				OFFSET -4.081825 -39.591045 13.023800
				CHANNELS 3 Xrotation Yrotation Zrotation
				JOINT RightFoot
				{
					OFFSET 4.081824 -37.707954 -15.979600
					CHANNELS 3 Xrotation Yrotation Zrotation
					JOINT RightToeBase
					{
						OFFSET -5.346400 -15.068900 20.645000
						CHANNELS 3 Xrotation Yrotation Zrotation
						JOINT RightToe_End
						{
							OFFSET -2.754700 0.931300 11.300900
							CHANNELS 3 Xrotation Yrotation Zrotation
							End Site
							{
								OFFSET 0 0 0
							}
						}
					}
				}
			}
		}
	}
	JOINT Spine_virtual
	{
		OFFSET 0.000000 0.000000 0.000000
		CHANNELS 3 Xrotation Yrotation Zrotation
		JOINT Spine
		{
			OFFSET -0.279200 12.230698 -2.892100
			CHANNELS 3 Xrotation Yrotation Zrotation
			JOINT Spine1
			{
				OFFSET -0.232667 10.192268 -1.242267
				CHANNELS 3 Xrotation Yrotation Zrotation
				JOINT Spine1_split
				{
					OFFSET -0.232667 10.192268 -1.242267
					CHANNELS 3 Xrotation Yrotation Zrotation
					JOINT Spine2
					{
						OFFSET -0.232667 10.192268 -1.242267
						CHANNELS 3 Xrotation Yrotation Zrotation
						JOINT Neck_virtual
						{
							OFFSET 0.000000 0.000000 0.000000
							CHANNELS 3 Xrotation Yrotation Zrotation
							JOINT Neck
							{
								OFFSET -0.418800 17.814194 8.416900
								CHANNELS 3 Xrotation Yrotation Zrotation
								JOINT Head
								{
									OFFSET 0.000000 7.031097 3.806800
									CHANNELS 3 Xrotation Yrotation Zrotation
									JOINT HeadTop_End
									{
										OFFSET 0.000000 24.646606 12.978600
										CHANNELS 3 Xrotation Yrotation Zrotation
										End Site
										{
											OFFSET 0 0 0
										}
									}
								}
							}
						}
						JOINT LeftShoulder_virtual
						{
							OFFSET 0.000000 0.000000 0.000000
							CHANNELS 3 Xrotation Yrotation Zrotation
							JOINT LeftShoulder
							{
								OFFSET 8.476499 7.247704 -3.868750
								CHANNELS 3 Xrotation Yrotation Zrotation
								JOINT LeftShoulder_split
								{
									OFFSET 8.476499 7.247704 -3.868750
									CHANNELS 3 Xrotation Yrotation Zrotation
									JOINT LeftArm
									{
										OFFSET 9.308998 -2.777710 0.208600
										CHANNELS 3 Xrotation Yrotation Zrotation
										JOINT LeftForeArm
										{
											OFFSET 29.972298 0.000000 0.000000
											CHANNELS 3 Xrotation Yrotation Zrotation
											JOINT LeftHand
											{
												OFFSET 26.026505 0.000000 0.000000
												CHANNELS 3 Xrotation Yrotation Zrotation
												End Site
												{
													OFFSET 0 0 0
												}
											}
										}
									}
								}
							}
						}
						JOINT RightShoulder_virtual
						{
							OFFSET 0.000000 0.000000 0.000000
							CHANNELS 3 Xrotation Yrotation Zrotation
							JOINT RightShoulder
							{
								OFFSET -7.570500 7.247704 -3.868750
								CHANNELS 3 Xrotation Yrotation Zrotation
								JOINT RightShoulder_split
								{
									OFFSET -7.570500 7.247704 -3.868750
									CHANNELS 3 Xrotation Yrotation Zrotation
									JOINT RightArm
									{
										OFFSET -9.308998 -2.777710 0.208500
										CHANNELS 3 Xrotation Yrotation Zrotation
										JOINT RightForeArm
										{
											OFFSET -29.972300 0.000000 0.000000
											CHANNELS 3 Xrotation Yrotation Zrotation
											JOINT RightHand
											{
												OFFSET -26.026505 0.000000 0.000000
												CHANNELS 3 Xrotation Yrotation Zrotation
												End Site
												{
													OFFSET 0 0 0
												}
											}
										}
									}
								}
							}
						}
					}
				}
			}
		}
	}
}
MOTION
Frames: 10
Frame Time: 0.03333333
-0.717528 78.369240 0.241570 0.000000 0.000000 0.000000 6.361972 60.690370 -9.594989 -8.916174 8.637442 19.680992 44.161186 -5.363428 12.876196 -25.985480 6.041221 -23.703746 -12.338292 0.032904 -1.545037 0.000000 0.000000 0.000000 8.253794 60.859055 -11.012840 -20.846159 7.975058 -27.272525 25.146287 10.595223 1.569725 -10.318743 8.835213 12.994776 -5.586754 -0.112915 1.246012 0.000000 0.000000 0.000000 7.910663 62.609482 -9.057347 0.525690 -3.534399 -1.253994 2.772326 -0.645759 -0.382011 1.219085 -0.225679 0.100343 0.000000 0.000000 0.000000 1.719161 -1.104007 -0.095933 -6.598552 -10.406830 -1.930303 -2.858854 -40.975493 5.672637 0.000000 0.000000 0.000000 1.653143 -1.044037 -0.286738 0.394242 -8.242508 -9.162569 -2.956297 -0.211403 -1.865946 3.126372 -46.177464 -46.329815 175.074291 -73.279822 173.829735 0.000000 0.000000 0.000000 2.358403 -0.832174 -0.307886 -0.109459 -2.315838 8.902792 -3.487528 5.986142 -0.577955 -22.893834 -6.864463 46.877538 -178.353943 66.258791 178.265765 0.000000 0.000000 0.000000 
-0.782796 81.169159 0.145580 0.000000 0.000000 0.000000 6.083986 58.869988 -9.540925 -8.480622 7.292040 20.153113 42.156897 -2.590393 11.133731 -22.604882 7.279562 -19.973983 -10.540187 0.305031 -2.917474 0.000000 0.000000 0.000000 8.522251 58.397619 -10.928613 -20.205530 6.233163 -26.570042 21.556451 11.511754 1.872408 -8.026825 10.645921 16.892448 -8.290183 0.372979 0.674684 0.000000 0.000000 0.000000 7.893779 59.993472 -9.028432 0.129699 -3.629291 -0.736527 2.502787 -0.682133 -0.287698 1.439874 -0.242119 0.079976 0.000000 0.000000 0.000000 2.054291 -1.033009 -0.085842 -6.285319 -10.243772 -1.601063 -2.537101 -40.907451 5.663064 0.000000 0.000000 0.000000 1.673340 -1.059739 -0.167545 0.398801 -8.521884 -8.333161 -3.607005 -1.127713 -0.682850 -0.192074 -46.558101 -46.617421 176.456325 -72.014065 175.475046 0.000000 0.000000 0.000000 2.383370 -0.807068 -0.188616 -0.032054 -2.120327 8.668652 -3.914497 4.812113 -1.425271 -24.298617 -7.452635 46.031534 -178.941531 64.912151 178.576580 0.000000 0.000000 0.000000 
-0.495230 86.001030 -0.746483 0.000000 0.000000 0.000000 5.796253 55.685521 -9.429356 -9.625365 5.656948 20.740477 39.500917 0.331130 8.786047 -13.957673 7.033830 -16.879771 -5.961584 0.597247 -6.889128 0.000000 0.000000 0.000000 8.877084 54.122296 -10.829899 -18.836987 4.229985 -24.416729 15.275359 11.918535 2.659049 -5.239286 12.550729 19.461697 -8.377588 0.862888 0.410749 0.000000 0.000000 0.000000 8.023352 55.499317 -9.025243 -0.222229 -3.431850 0.151854 2.265410 -0.582827 -0.271266 1.502384 -0.050240 0.158997 0.000000 0.000000 0.000000 2.439944 -0.826534 -0.140028 -5.796867 -9.669735 -1.092889 -1.926982 -39.556313 5.709998 0.000000 0.000000 0.000000 1.820725 -0.902314 -0.101945 0.426187 -8.273882 -6.977093 -3.291920 -1.687640 -0.549195 -4.926390 -46.257145 -46.692748 177.950948 -69.993019 177.079799 0.000000 0.000000 0.000000 2.415623 -0.711470 -0.192410 0.094518 -1.562952 8.224467 -3.801526 3.492991 -1.373188 -26.436249 -6.469804 43.605686 -178.840840 63.491977 178.224361 0.000000 0.000000 0.000000 
0.122439 91.288635 -2.261559 0.000000 0.000000 0.000000 5.163265 50.917715 -9.055092 -11.541354 4.153771 21.155995 37.876718 2.269588 6.620936 -1.029237 4.803966 -15.009590 -8.570793 0.826341 -9.084678 0.000000 0.000000 0.000000 8.364139 48.708422 -10.194612 -17.460690 2.008213 -21.231846 9.868361 11.131724 3.461012 -3.041438 12.940209 19.303884 -6.000299 1.180553 0.470596 0.000000 0.000000 0.000000 7.814256 49.815671 -8.620317 -0.288946 -2.978850 1.105627 2.098171 -0.358006 -0.309543 1.366783 -0.009604 0.193444 0.000000 0.000000 0.000000 2.778228 -0.513789 -0.233694 -5.238809 -8.787179 -0.534374 -1.113061 -36.989443 5.718327 0.000000 0.000000 0.000000 2.044984 -0.619689 -0.093120 0.428744 -7.585742 -5.471013 -2.604177 -1.655420 -1.144066 -10.060353 -44.919637 -46.800162 179.171107 -68.095989 178.307716 0.000000 0.000000 0.000000 2.467936 -0.523770 -0.303822 0.229608 -0.643099 7.773090 -3.333489 2.823687 -0.805002 -28.450731 -3.987346 40.519653 -178.416781 62.588097 177.672318 0.000000 0.000000 0.000000 
0.971646 95.810509 -3.518379 0.000000 0.000000 0.000000 4.072225 45.381235 -8.111459 -12.582005 3.541858 20.424236 36.642773 3.158191 5.228072 9.890916 1.584367 -12.582333 -20.719039 1.293098 -7.896267 0.000000 0.000000 0.000000 6.667730 42.500770 -8.877800 -16.975161 -0.363922 -17.920362 8.319268 9.253440 3.942964 -1.715985 10.905730 16.713162 -3.740913 1.274169 0.725246 0.000000 0.000000 0.000000 6.956189 43.915415 -7.625359 0.025543 -2.325818 1.840404 2.062341 -0.032839 -0.369557 1.079651 -0.035626 0.089161 0.000000 0.000000 0.000000 3.012130 -0.145293 -0.320303 -4.680043 -7.610796 -0.056661 -0.218250 -33.505865 5.610638 0.000000 0.000000 0.000000 2.317371 -0.256964 -0.143433 0.371614 -6.597053 -4.195342 -2.096710 -0.976913 -1.771087 -14.580903 -42.754737 -46.956939 179.926662 -66.910179 179.035746 0.000000 0.000000 0.000000 2.532202 -0.227980 -0.471384 0.393460 0.531533 7.600097 -2.736691 2.937499 -0.461275 -29.750412 -0.577985 37.709024 -177.954172 62.552505 177.243914 0.000000 0.000000 0.000000 
1.997752 98.731461 -4.168728 0.000000 0.000000 0.000000 2.544752 39.298897 -6.559180 -13.325170 4.735857 18.751258 36.194183 4.398528 4.138150 14.063717 -0.303015 -8.776324 -30.455161 1.853234 -7.357808 0.000000 0.000000 0.000000 4.111936 36.482711 -7.019031 -17.633122 -2.481813 -15.497371 11.929303 7.158467 4.004053 -1.168292 7.154106 12.933221 -3.250875 1.173141 0.989034 0.000000 0.000000 0.000000 5.455620 38.565359 -6.148634 0.652190 -1.572531 2.216998 2.145924 0.369864 -0.411649 0.832107 -0.140223 -0.150711 0.000000 0.000000 0.000000 3.096682 0.208213 -0.381165 -4.187133 -6.229862 0.257980 0.644898 -29.520330 5.352632 0.000000 0.000000 0.000000 2.592846 0.123907 -0.248020 0.283138 -5.587728 -3.489379 -1.997318 -0.201799 -2.338726 -17.232663 -39.968129 -47.138052 -179.792094 -66.569633 179.327177 0.000000 0.000000 0.000000 2.632032 0.139481 -0.619549 0.576233 1.798639 7.910588 -2.271456 3.300734 -0.375077 -29.957794 2.903906 35.905017 -177.740155 63.504865 177.212045 0.000000 0.000000 0.000000 
2.980168 100.137787 -4.876579 0.000000 0.000000 0.000000 1.081868 32.369592 -4.615892 -14.904917 6.468659 17.004763 36.322024 5.687520 3.358318 12.756115 -0.786444 -5.953189 -29.709410 2.542620 -8.481679 0.000000 0.000000 0.000000 1.733973 31.448486 -4.961233 -18.953736 -3.992484 -14.745388 19.244768 5.573082 3.935726 -1.171563 3.148450 9.563952 -3.485643 0.969909 1.265492 0.000000 0.000000 0.000000 3.699014 33.158226 -4.488799 1.377055 -0.809416 2.146638 2.304424 0.788742 -0.428967 0.839691 -0.232352 -0.130871 0.000000 0.000000 0.000000 3.054076 0.525650 -0.402472 -3.608362 -4.770184 0.375010 1.362802 -25.387260 4.980738 0.000000 0.000000 0.000000 2.828916 0.480845 -0.379963 0.216405 -4.573811 -3.459640 -2.226959 0.458454 -2.619616 -17.878401 -37.013943 -47.634774 -179.834455 -67.108651 179.375835 0.000000 0.000000 0.000000 2.781885 0.547137 -0.724573 0.745986 2.891908 8.743026 -2.044745 3.786948 -0.695062 -29.363441 5.649990 35.385496 -177.938299 65.237316 177.616187 0.000000 0.000000 0.000000 
3.715027 100.473389 -5.589470 0.000000 0.000000 0.000000 0.383124 25.693109 -2.663160 -17.503063 6.563065 15.971788 36.047167 5.245483 3.003677 11.006223 -1.217267 -7.254755 -19.306061 2.696164 -9.893982 0.000000 0.000000 0.000000 0.432062 27.144809 -3.057646 -20.046781 -4.785294 -15.824913 26.894357 4.840752 3.687306 -1.209997 0.040048 7.422081 -3.753185 0.792386 1.553799 0.000000 0.000000 0.000000 2.186522 27.719204 -3.003256 1.862814 -0.082154 1.705365 2.461494 1.161460 -0.444517 0.624827 -0.358096 0.335228 0.000000 0.000000 0.000000 2.979270 0.817083 -0.374265 -2.894711 -3.269397 0.319816 1.797403 -21.437445 4.549354 0.000000 0.000000 0.000000 2.948143 0.808212 -0.511627 0.185939 -3.604751 -4.083344 -2.632965 0.592450 -2.420394 -16.415463 -34.376772 -48.306731 179.793119 -68.104971 179.147570 0.000000 0.000000 0.000000 2.901664 0.954591 -0.761660 0.896779 3.687310 9.914093 -1.950161 4.130691 -1.258492 -28.459008 7.388447 36.141321 -178.410716 67.151906 178.226574 0.000000 0.000000 0.000000 
4.190366 100.099213 -5.561363 0.000000 0.000000 0.000000 0.627785 19.495535 -0.990245 -20.811914 5.375133 16.408155 34.630582 3.030157 2.894001 12.044181 -2.367294 -12.295303 -7.568358 2.198297 -9.589421 0.000000 0.000000 0.000000 0.336894 22.697053 -1.351458 -20.376672 -4.925806 -18.314281 31.748850 4.888487 3.096263 -0.449840 -1.638181 7.048241 -5.567493 0.663782 1.802435 0.000000 0.000000 0.000000 0.992422 22.030369 -1.732282 1.951262 0.528660 1.077690 2.521054 1.468195 -0.463554 0.604471 -0.768862 0.789002 0.000000 0.000000 0.000000 2.910458 1.086303 -0.334931 -2.186606 -1.857955 0.180340 1.933865 -17.857803 4.166531 0.000000 0.000000 0.000000 2.846458 1.115896 -0.622852 0.172097 -2.801503 -5.151035 -3.207727 -0.137808 -1.949965 -13.569869 -31.742840 -48.999176 179.345208 -68.981776 178.933539 0.000000 0.000000 0.000000 2.909249 1.317105 -0.727279 0.996163 4.116540 11.183747 -1.985682 4.048714 -1.769310 -27.666810 8.339604 37.849654 -179.027509 68.669486 178.878269 0.000000 0.000000 0.000000 
4.362798 99.067986 -5.369423 0.000000 0.000000 0.000000 1.589565 13.315767 0.267938 -23.013612 4.189006 17.593358 31.390720 0.648683 3.131937 13.860264 -4.124725 -16.990628 -2.560310 1.709241 -6.515784 0.000000 0.000000 0.000000 1.059650 17.620703 -0.059423 -19.906482 -4.752748 -21.453293 32.842818 5.656532 2.497116 1.071498 -1.905421 8.296380 -9.313999 0.556282 2.063739 0.000000 0.000000 0.000000 0.578306 15.888430 -0.868745 1.683053 1.064838 0.504857 2.480783 1.719725 -0.501088 0.742378 -1.103837 1.034345 0.000000 0.000000 0.000000 2.829816 1.363891 -0.314997 -1.666107 -0.655327 -0.001241 1.825873 -14.650776 3.908599 0.000000 0.000000 0.000000 2.552996 1.426354 -0.694615 0.164537 -2.147915 -6.308134 -3.593142 -1.143450 -1.490507 -10.614817 -28.812962 -49.438661 179.095292 -69.532869 178.991883 0.000000 0.000000 0.000000 2.766092 1.637314 -0.670452 1.040350 4.245477 12.274370 -2.085573 3.616527 -2.080605 -27.256853 9.185658 39.989081 -179.564048 69.474936 179.351547 0.000000 0.000000 0.000000 
